<svg width="1477" height="113" viewBox="0 0 1477 113" fill="none" xmlns="http://www.w3.org/2000/svg">
<path d="M61.8759 64.7038C220.5 124.998 358.595 111.295 481.193 61.2976" stroke="#1DAEFE" stroke-width="2" stroke-dasharray="4 6"/>
<path d="M900.876 57.7038C1059.5 117.998 1197.6 104.295 1320.19 54.2976" stroke="#1DAEFE" stroke-width="2" stroke-dasharray="4 6"/>
<path d="M906.957 55.2964C806.824 18.6084 610.238 8.70503 487.64 58.7026" stroke="#1DAEFE" stroke-width="2" stroke-dasharray="4 6"/>
<circle cx="906.832" cy="57" r="3" fill="white" stroke="#1DAEFE" stroke-width="2"/>
<circle cx="1318.98" cy="58" r="9.5" fill="#0C40E6" stroke="white" stroke-width="7"/>
<rect x="1301" width="153" height="26" rx="9" fill="url(#paint0_linear_4656_21907)"/>
<path d="M1316.96 18H1314.65L1318.17 7.81818H1320.94L1324.45 18H1322.14L1319.59 10.1449H1319.51L1316.96 18ZM1316.81 13.9979H1322.26V15.6783H1316.81V13.9979ZM1327.96 13.5852V18H1325.85V10.3636H1327.86V11.7109H1327.95C1328.12 11.2668 1328.41 10.9155 1328.8 10.657C1329.2 10.3951 1329.68 10.2642 1330.25 10.2642C1330.78 10.2642 1331.24 10.3802 1331.64 10.6122C1332.03 10.8442 1332.34 11.1757 1332.56 11.6065C1332.78 12.0341 1332.89 12.5445 1332.89 13.1378V18H1330.77V13.5156C1330.77 13.0483 1330.65 12.6837 1330.41 12.4219C1330.17 12.1567 1329.84 12.0241 1329.41 12.0241C1329.13 12.0241 1328.87 12.0855 1328.66 12.2081C1328.44 12.3307 1328.27 12.5097 1328.15 12.745C1328.03 12.977 1327.97 13.2571 1327.96 13.5852ZM1337.58 18.1243C1337 18.1243 1336.47 17.9751 1336 17.6768C1335.54 17.3752 1335.16 16.9328 1334.89 16.3494C1334.62 15.7628 1334.48 15.0436 1334.48 14.1918C1334.48 13.3168 1334.62 12.5893 1334.9 12.0092C1335.19 11.4259 1335.56 10.9901 1336.03 10.7017C1336.5 10.41 1337.01 10.2642 1337.57 10.2642C1338 10.2642 1338.36 10.3371 1338.64 10.483C1338.93 10.6255 1339.16 10.8045 1339.34 11.0199C1339.52 11.232 1339.65 11.4408 1339.75 11.6463H1339.81V7.81818H1341.92V18H1339.84V16.777H1339.75C1339.65 16.9891 1339.51 17.1996 1339.32 17.4084C1339.15 17.6139 1338.91 17.7846 1338.62 17.9205C1338.34 18.0563 1337.99 18.1243 1337.58 18.1243ZM1338.25 16.4389C1338.59 16.4389 1338.88 16.3461 1339.12 16.1605C1339.35 15.9716 1339.54 15.7081 1339.66 15.37C1339.79 15.032 1339.86 14.6359 1339.86 14.1818C1339.86 13.7277 1339.79 13.3333 1339.67 12.9986C1339.54 12.6638 1339.36 12.4053 1339.12 12.223C1338.88 12.0407 1338.59 11.9496 1338.25 11.9496C1337.9 11.9496 1337.61 12.044 1337.37 12.233C1337.13 12.4219 1336.95 12.6837 1336.83 13.0185C1336.71 13.3532 1336.64 13.741 1336.64 14.1818C1336.64 14.6259 1336.71 15.0187 1336.83 15.3601C1336.95 15.6982 1337.13 15.9633 1337.37 16.1555C1337.61 16.3445 1337.9 16.4389 1338.25 16.4389ZM1347.33 18V10.3636H1349.34V11.7109H1349.43C1349.59 11.2635 1349.86 10.9105 1350.23 10.652C1350.6 10.3935 1351.04 10.2642 1351.56 10.2642C1352.09 10.2642 1352.53 10.3951 1352.9 10.657C1353.27 10.9155 1353.51 11.2668 1353.63 11.7109H1353.71C1353.87 11.2734 1354.15 10.9238 1354.56 10.6619C1354.97 10.3968 1355.46 10.2642 1356.02 10.2642C1356.73 10.2642 1357.31 10.4912 1357.75 10.9453C1358.2 11.3961 1358.42 12.0357 1358.42 12.8643V18H1356.31V13.282C1356.31 12.8577 1356.2 12.5395 1355.97 12.3274C1355.75 12.1153 1355.46 12.0092 1355.13 12.0092C1354.74 12.0092 1354.44 12.1319 1354.23 12.3771C1354.01 12.6191 1353.9 12.9389 1353.9 13.3366V18H1351.85V13.2372C1351.85 12.8627 1351.74 12.5644 1351.53 12.3423C1351.31 12.1203 1351.03 12.0092 1350.69 12.0092C1350.45 12.0092 1350.24 12.0689 1350.05 12.1882C1349.86 12.3042 1349.72 12.4683 1349.61 12.6804C1349.5 12.8892 1349.44 13.1345 1349.44 13.4162V18H1347.33ZM1363.76 18.1491C1362.98 18.1491 1362.32 17.9851 1361.75 17.657C1361.19 17.3255 1360.76 16.8648 1360.45 16.2749C1360.15 15.6816 1360 14.9938 1360 14.2116C1360 13.4228 1360.15 12.7334 1360.45 12.1435C1360.76 11.5502 1361.19 11.0895 1361.75 10.7614C1362.32 10.4299 1362.98 10.2642 1363.76 10.2642C1364.53 10.2642 1365.19 10.4299 1365.75 10.7614C1366.32 11.0895 1366.75 11.5502 1367.06 12.1435C1367.36 12.7334 1367.51 13.4228 1367.51 14.2116C1367.51 14.9938 1367.36 15.6816 1367.06 16.2749C1366.75 16.8648 1366.32 17.3255 1365.75 17.657C1365.19 17.9851 1364.53 18.1491 1363.76 18.1491ZM1363.77 16.5085C1364.12 16.5085 1364.41 16.4091 1364.65 16.2102C1364.88 16.008 1365.06 15.733 1365.18 15.3849C1365.3 15.0369 1365.36 14.6409 1365.36 14.1967C1365.36 13.7526 1365.3 13.3565 1365.18 13.0085C1365.06 12.6605 1364.88 12.3854 1364.65 12.1832C1364.41 11.9811 1364.12 11.88 1363.77 11.88C1363.41 11.88 1363.11 11.9811 1362.87 12.1832C1362.63 12.3854 1362.45 12.6605 1362.33 13.0085C1362.21 13.3565 1362.15 13.7526 1362.15 14.1967C1362.15 14.6409 1362.21 15.0369 1362.33 15.3849C1362.45 15.733 1362.63 16.008 1362.87 16.2102C1363.11 16.4091 1363.41 16.5085 1363.77 16.5085ZM1369.1 18V10.3636H1371.15V11.696H1371.23C1371.37 11.2221 1371.61 10.8641 1371.94 10.6222C1372.26 10.3769 1372.64 10.2543 1373.07 10.2543C1373.17 10.2543 1373.29 10.2609 1373.41 10.2741C1373.53 10.2874 1373.64 10.3056 1373.73 10.3288V12.2081C1373.64 12.1783 1373.5 12.1518 1373.32 12.1286C1373.15 12.1054 1372.99 12.0938 1372.84 12.0938C1372.53 12.0938 1372.25 12.1617 1372 12.2976C1371.76 12.4302 1371.57 12.6158 1371.43 12.8544C1371.29 13.093 1371.22 13.3681 1371.22 13.6797V18H1369.1ZM1378.16 18.1491C1377.38 18.1491 1376.7 17.9901 1376.14 17.6719C1375.57 17.3504 1375.14 16.8963 1374.83 16.3097C1374.53 15.7197 1374.38 15.022 1374.38 14.2166C1374.38 13.4311 1374.53 12.7417 1374.83 12.1484C1375.14 11.5552 1375.57 11.0928 1376.12 10.7614C1376.68 10.4299 1377.33 10.2642 1378.08 10.2642C1378.58 10.2642 1379.05 10.3454 1379.49 10.5078C1379.92 10.6669 1380.31 10.9072 1380.63 11.2287C1380.96 11.5502 1381.21 11.9545 1381.4 12.4418C1381.58 12.9257 1381.67 13.4924 1381.67 14.142V14.7237H1375.22V13.4112H1379.68C1379.68 13.1063 1379.61 12.8362 1379.48 12.6009C1379.34 12.3655 1379.16 12.1816 1378.93 12.049C1378.69 11.9131 1378.42 11.8452 1378.11 11.8452C1377.79 11.8452 1377.51 11.9197 1377.26 12.0689C1377.01 12.2147 1376.82 12.4119 1376.68 12.6605C1376.54 12.9058 1376.47 13.1792 1376.47 13.4808V14.7287C1376.47 15.1065 1376.54 15.433 1376.68 15.7081C1376.82 15.9832 1377.02 16.1953 1377.28 16.3445C1377.54 16.4936 1377.84 16.5682 1378.2 16.5682C1378.43 16.5682 1378.65 16.535 1378.85 16.4688C1379.04 16.4025 1379.21 16.303 1379.35 16.1705C1379.49 16.0379 1379.59 15.8755 1379.67 15.6832L1381.62 15.8125C1381.53 16.2831 1381.32 16.6941 1381.01 17.0455C1380.71 17.3935 1380.31 17.6652 1379.83 17.8608C1379.35 18.053 1378.79 18.1491 1378.16 18.1491ZM1391.61 14.7486V10.3636H1393.73V18H1391.69V16.6129H1391.61C1391.44 17.0604 1391.15 17.42 1390.75 17.6918C1390.36 17.9635 1389.87 18.0994 1389.3 18.0994C1388.79 18.0994 1388.34 17.9834 1387.95 17.7514C1387.56 17.5194 1387.26 17.1896 1387.04 16.7621C1386.82 16.3345 1386.72 15.8224 1386.71 15.2259V10.3636H1388.83V14.848C1388.83 15.2988 1388.95 15.6551 1389.19 15.9169C1389.43 16.1787 1389.75 16.3097 1390.15 16.3097C1390.41 16.3097 1390.65 16.2517 1390.87 16.1357C1391.09 16.0163 1391.27 15.8407 1391.4 15.6087C1391.54 15.3767 1391.61 15.09 1391.61 14.7486ZM1395.63 20.8636V10.3636H1397.72V11.6463H1397.81C1397.91 11.4408 1398.04 11.232 1398.22 11.0199C1398.39 10.8045 1398.63 10.6255 1398.91 10.483C1399.2 10.3371 1399.56 10.2642 1399.99 10.2642C1400.54 10.2642 1401.06 10.41 1401.53 10.7017C1402 10.9901 1402.37 11.4259 1402.66 12.0092C1402.94 12.5893 1403.08 13.3168 1403.08 14.1918C1403.08 15.0436 1402.94 15.7628 1402.67 16.3494C1402.39 16.9328 1402.02 17.3752 1401.55 17.6768C1401.08 17.9751 1400.56 18.1243 1399.98 18.1243C1399.57 18.1243 1399.22 18.0563 1398.93 17.9205C1398.65 17.7846 1398.41 17.6139 1398.23 17.4084C1398.05 17.1996 1397.91 16.9891 1397.81 16.777H1397.75V20.8636H1395.63ZM1397.7 14.1818C1397.7 14.6359 1397.77 15.032 1397.89 15.37C1398.02 15.7081 1398.2 15.9716 1398.44 16.1605C1398.68 16.3461 1398.97 16.4389 1399.31 16.4389C1399.65 16.4389 1399.95 16.3445 1400.18 16.1555C1400.42 15.9633 1400.6 15.6982 1400.73 15.3601C1400.85 15.0187 1400.92 14.6259 1400.92 14.1818C1400.92 13.741 1400.85 13.3532 1400.73 13.0185C1400.61 12.6837 1400.43 12.4219 1400.19 12.233C1399.95 12.044 1399.66 11.9496 1399.31 11.9496C1398.96 11.9496 1398.67 12.0407 1398.43 12.223C1398.2 12.4053 1398.02 12.6638 1397.89 12.9986C1397.77 13.3333 1397.7 13.7277 1397.7 14.1818ZM1407.51 18.1243C1406.93 18.1243 1406.41 17.9751 1405.94 17.6768C1405.47 17.3752 1405.1 16.9328 1404.82 16.3494C1404.55 15.7628 1404.42 15.0436 1404.42 14.1918C1404.42 13.3168 1404.56 12.5893 1404.84 12.0092C1405.12 11.4259 1405.5 10.9901 1405.96 10.7017C1406.43 10.41 1406.95 10.2642 1407.51 10.2642C1407.94 10.2642 1408.29 10.3371 1408.58 10.483C1408.87 10.6255 1409.1 10.8045 1409.27 11.0199C1409.45 11.232 1409.59 11.4408 1409.68 11.6463H1409.75V7.81818H1411.86V18H1409.77V16.777H1409.68C1409.58 16.9891 1409.44 17.1996 1409.26 17.4084C1409.08 17.6139 1408.85 17.7846 1408.56 17.9205C1408.27 18.0563 1407.92 18.1243 1407.51 18.1243ZM1408.19 16.4389C1408.53 16.4389 1408.81 16.3461 1409.05 16.1605C1409.29 15.9716 1409.47 15.7081 1409.6 15.37C1409.73 15.032 1409.79 14.6359 1409.79 14.1818C1409.79 13.7277 1409.73 13.3333 1409.6 12.9986C1409.48 12.6638 1409.29 12.4053 1409.06 12.223C1408.82 12.0407 1408.53 11.9496 1408.19 11.9496C1407.84 11.9496 1407.54 12.044 1407.31 12.233C1407.07 12.4219 1406.89 12.6837 1406.76 13.0185C1406.64 13.3532 1406.58 13.741 1406.58 14.1818C1406.58 14.6259 1406.64 15.0187 1406.76 15.3601C1406.89 15.6982 1407.07 15.9633 1407.31 16.1555C1407.54 16.3445 1407.84 16.4389 1408.19 16.4389ZM1415.99 18.1442C1415.5 18.1442 1415.07 18.0597 1414.69 17.8906C1414.3 17.7183 1414 17.4647 1413.78 17.13C1413.56 16.7919 1413.45 16.371 1413.45 15.8672C1413.45 15.4429 1413.53 15.0866 1413.69 14.7983C1413.84 14.5099 1414.05 14.2779 1414.32 14.1023C1414.59 13.9266 1414.9 13.794 1415.24 13.7045C1415.58 13.6151 1415.94 13.5521 1416.32 13.5156C1416.77 13.4692 1417.12 13.4261 1417.39 13.3864C1417.67 13.3433 1417.86 13.2803 1417.99 13.1974C1418.11 13.1146 1418.17 12.992 1418.17 12.8295V12.7997C1418.17 12.4848 1418.07 12.2412 1417.87 12.0689C1417.68 11.8965 1417.4 11.8104 1417.04 11.8104C1416.66 11.8104 1416.35 11.8949 1416.13 12.0639C1415.9 12.2296 1415.75 12.4384 1415.68 12.6903L1413.72 12.5312C1413.82 12.0672 1414.02 11.6662 1414.31 11.3281C1414.6 10.9867 1414.98 10.7249 1415.44 10.5426C1415.9 10.357 1416.44 10.2642 1417.05 10.2642C1417.47 10.2642 1417.88 10.3139 1418.27 10.4134C1418.66 10.5128 1419 10.6669 1419.3 10.8757C1419.61 11.0845 1419.85 11.353 1420.02 11.6811C1420.2 12.0059 1420.29 12.3954 1420.29 12.8494V18H1418.28V16.9411H1418.22C1418.1 17.1797 1417.93 17.3902 1417.73 17.5724C1417.52 17.7514 1417.28 17.8923 1416.99 17.995C1416.7 18.0945 1416.37 18.1442 1415.99 18.1442ZM1416.59 16.6825C1416.91 16.6825 1417.18 16.6212 1417.42 16.4986C1417.66 16.3726 1417.85 16.2036 1417.98 15.9915C1418.12 15.7794 1418.19 15.5391 1418.19 15.2706V14.4602C1418.12 14.5033 1418.03 14.5431 1417.91 14.5795C1417.8 14.6127 1417.67 14.6442 1417.53 14.674C1417.39 14.7005 1417.24 14.7254 1417.1 14.7486C1416.96 14.7685 1416.83 14.7867 1416.71 14.8033C1416.47 14.8397 1416.25 14.8977 1416.06 14.9773C1415.88 15.0568 1415.73 15.1645 1415.63 15.3004C1415.53 15.433 1415.48 15.5987 1415.48 15.7976C1415.48 16.0859 1415.58 16.3063 1415.79 16.4588C1416 16.608 1416.27 16.6825 1416.59 16.6825ZM1426.2 10.3636V11.9545H1421.6V10.3636H1426.2ZM1422.65 8.53409H1424.77V15.6534C1424.77 15.849 1424.8 16.0014 1424.86 16.1108C1424.92 16.2169 1425 16.2914 1425.1 16.3345C1425.21 16.3776 1425.34 16.3991 1425.48 16.3991C1425.58 16.3991 1425.68 16.3909 1425.78 16.3743C1425.88 16.3544 1425.96 16.3395 1426.01 16.3295L1426.34 17.9055C1426.24 17.9387 1426.09 17.9768 1425.9 18.0199C1425.7 18.0663 1425.47 18.0945 1425.19 18.1044C1424.68 18.1243 1424.24 18.0563 1423.85 17.9006C1423.47 17.7448 1423.17 17.5028 1422.96 17.1747C1422.75 16.8466 1422.65 16.4323 1422.65 15.9318V8.53409ZM1431.19 18.1491C1430.41 18.1491 1429.73 17.9901 1429.16 17.6719C1428.6 17.3504 1428.17 16.8963 1427.86 16.3097C1427.56 15.7197 1427.4 15.022 1427.4 14.2166C1427.4 13.4311 1427.56 12.7417 1427.86 12.1484C1428.17 11.5552 1428.59 11.0928 1429.15 10.7614C1429.7 10.4299 1430.36 10.2642 1431.11 10.2642C1431.61 10.2642 1432.08 10.3454 1432.51 10.5078C1432.95 10.6669 1433.33 10.9072 1433.66 11.2287C1433.99 11.5502 1434.24 11.9545 1434.42 12.4418C1434.6 12.9257 1434.7 13.4924 1434.7 14.142V14.7237H1428.25V13.4112H1432.7C1432.7 13.1063 1432.64 12.8362 1432.5 12.6009C1432.37 12.3655 1432.19 12.1816 1431.95 12.049C1431.72 11.9131 1431.45 11.8452 1431.14 11.8452C1430.82 11.8452 1430.53 11.9197 1430.29 12.0689C1430.04 12.2147 1429.85 12.4119 1429.71 12.6605C1429.57 12.9058 1429.5 13.1792 1429.5 13.4808V14.7287C1429.5 15.1065 1429.57 15.433 1429.7 15.7081C1429.85 15.9832 1430.05 16.1953 1430.31 16.3445C1430.56 16.4936 1430.87 16.5682 1431.23 16.5682C1431.46 16.5682 1431.68 16.535 1431.87 16.4688C1432.07 16.4025 1432.24 16.303 1432.37 16.1705C1432.51 16.0379 1432.62 15.8755 1432.69 15.6832L1434.65 15.8125C1434.55 16.2831 1434.35 16.6941 1434.04 17.0455C1433.73 17.3935 1433.34 17.6652 1432.86 17.8608C1432.38 18.053 1431.82 18.1491 1431.19 18.1491ZM1442.64 12.5412L1440.7 12.6605C1440.67 12.4948 1440.6 12.3456 1440.49 12.2131C1440.38 12.0772 1440.24 11.9695 1440.06 11.8899C1439.88 11.8071 1439.67 11.7656 1439.43 11.7656C1439.1 11.7656 1438.82 11.8352 1438.59 11.9744C1438.37 12.1103 1438.26 12.2926 1438.26 12.5213C1438.26 12.7036 1438.33 12.8577 1438.48 12.9837C1438.62 13.1096 1438.87 13.2107 1439.23 13.2869L1440.61 13.5653C1441.35 13.7178 1441.9 13.9631 1442.27 14.3011C1442.63 14.6392 1442.82 15.0833 1442.82 15.6335C1442.82 16.134 1442.67 16.5732 1442.37 16.951C1442.08 17.3288 1441.68 17.6238 1441.17 17.8359C1440.66 18.0447 1440.08 18.1491 1439.42 18.1491C1438.4 18.1491 1437.6 17.9387 1437 17.5178C1436.4 17.0935 1436.05 16.5168 1435.95 15.7876L1438.03 15.6783C1438.1 15.9865 1438.25 16.2218 1438.49 16.3842C1438.73 16.5433 1439.04 16.6229 1439.42 16.6229C1439.79 16.6229 1440.09 16.5516 1440.32 16.4091C1440.54 16.2633 1440.66 16.076 1440.66 15.8473C1440.66 15.6551 1440.58 15.4976 1440.42 15.375C1440.26 15.2491 1440.02 15.1529 1439.68 15.0866L1438.36 14.8232C1437.62 14.674 1437.06 14.4155 1436.7 14.0476C1436.33 13.6797 1436.15 13.2107 1436.15 12.6406C1436.15 12.1501 1436.29 11.7275 1436.55 11.3729C1436.82 11.0182 1437.2 10.7448 1437.68 10.5526C1438.17 10.3603 1438.74 10.2642 1439.39 10.2642C1440.35 10.2642 1441.11 10.468 1441.67 10.8757C1442.22 11.2834 1442.55 11.8385 1442.64 12.5412Z" fill="#040C37"/>
<circle cx="910" cy="58" r="9.5" fill="#0C40E6" stroke="white" stroke-width="7"/>
<rect x="866" y="87" width="87.5873" height="25.5873" rx="9" fill="url(#paint1_linear_4656_21907)"/>
<path d="M879.326 94.8182L881.787 102.554H881.881L884.347 94.8182H886.734L883.224 105H880.45L876.935 94.8182H879.326ZM890.748 105.149C889.963 105.149 889.287 104.99 888.72 104.672C888.156 104.35 887.722 103.896 887.417 103.31C887.112 102.72 886.96 102.022 886.96 101.217C886.96 100.431 887.112 99.7417 887.417 99.1484C887.722 98.5552 888.151 98.0928 888.705 97.7614C889.262 97.4299 889.915 97.2642 890.664 97.2642C891.167 97.2642 891.636 97.3454 892.071 97.5078C892.508 97.6669 892.889 97.9072 893.214 98.2287C893.542 98.5502 893.797 98.9545 893.98 99.4418C894.162 99.9257 894.253 100.492 894.253 101.142V101.724H887.805V100.411H892.26C892.26 100.106 892.193 99.8362 892.061 99.6009C891.928 99.3655 891.744 99.1816 891.509 99.049C891.277 98.9131 891.007 98.8452 890.698 98.8452C890.377 98.8452 890.092 98.9197 889.843 99.0689C889.598 99.2147 889.406 99.4119 889.267 99.6605C889.127 99.9058 889.056 100.179 889.053 100.481V101.729C889.053 102.107 889.122 102.433 889.262 102.708C889.404 102.983 889.605 103.195 889.863 103.344C890.122 103.494 890.428 103.568 890.783 103.568C891.018 103.568 891.234 103.535 891.429 103.469C891.625 103.402 891.792 103.303 891.931 103.17C892.071 103.038 892.177 102.875 892.25 102.683L894.208 102.812C894.109 103.283 893.905 103.694 893.597 104.045C893.292 104.393 892.898 104.665 892.414 104.861C891.933 105.053 891.378 105.149 890.748 105.149ZM895.845 105V97.3636H897.899V98.696H897.978C898.117 98.2221 898.351 97.8641 898.679 97.6222C899.007 97.3769 899.385 97.2543 899.813 97.2543C899.919 97.2543 900.033 97.2609 900.156 97.2741C900.278 97.2874 900.386 97.3056 900.479 97.3288V99.2081C900.379 99.1783 900.242 99.1518 900.066 99.1286C899.89 99.1054 899.73 99.0938 899.584 99.0938C899.272 99.0938 898.994 99.1617 898.749 99.2976C898.507 99.4302 898.314 99.6158 898.172 99.8544C898.033 100.093 897.963 100.368 897.963 100.68V105H895.845ZM908.137 99.5412L906.199 99.6605C906.165 99.4948 906.094 99.3456 905.985 99.2131C905.875 99.0772 905.731 98.9695 905.552 98.8899C905.377 98.8071 905.166 98.7656 904.921 98.7656C904.593 98.7656 904.316 98.8352 904.091 98.9744C903.865 99.1103 903.753 99.2926 903.753 99.5213C903.753 99.7036 903.825 99.8577 903.971 99.9837C904.117 100.11 904.367 100.211 904.722 100.287L906.104 100.565C906.847 100.718 907.4 100.963 907.765 101.301C908.129 101.639 908.311 102.083 908.311 102.634C908.311 103.134 908.164 103.573 907.869 103.951C907.577 104.329 907.176 104.624 906.666 104.836C906.159 105.045 905.574 105.149 904.911 105.149C903.9 105.149 903.095 104.939 902.495 104.518C901.898 104.094 901.548 103.517 901.446 102.788L903.529 102.678C903.592 102.987 903.744 103.222 903.986 103.384C904.228 103.543 904.538 103.623 904.916 103.623C905.287 103.623 905.585 103.552 905.811 103.409C906.039 103.263 906.155 103.076 906.159 102.847C906.155 102.655 906.074 102.498 905.915 102.375C905.756 102.249 905.511 102.153 905.179 102.087L903.857 101.823C903.111 101.674 902.556 101.415 902.191 101.048C901.83 100.68 901.65 100.211 901.65 99.6406C901.65 99.1501 901.782 98.7275 902.047 98.3729C902.316 98.0182 902.692 97.7448 903.176 97.5526C903.663 97.3603 904.233 97.2642 904.886 97.2642C905.851 97.2642 906.61 97.468 907.163 97.8757C907.72 98.2834 908.045 98.8385 908.137 99.5412ZM909.855 105V97.3636H911.973V105H909.855ZM910.919 96.3793C910.604 96.3793 910.334 96.2749 910.109 96.0661C909.887 95.8539 909.776 95.6004 909.776 95.3054C909.776 95.0137 909.887 94.7635 910.109 94.5547C910.334 94.3426 910.604 94.2365 910.919 94.2365C911.234 94.2365 911.502 94.3426 911.724 94.5547C911.95 94.7635 912.062 95.0137 912.062 95.3054C912.062 95.6004 911.95 95.8539 911.724 96.0661C911.502 96.2749 911.234 96.3793 910.919 96.3793ZM917.33 105.149C916.558 105.149 915.89 104.985 915.326 104.657C914.766 104.326 914.334 103.865 914.029 103.275C913.724 102.682 913.571 101.994 913.571 101.212C913.571 100.423 913.724 99.7334 914.029 99.1435C914.334 98.5502 914.766 98.0895 915.326 97.7614C915.89 97.4299 916.558 97.2642 917.33 97.2642C918.102 97.2642 918.768 97.4299 919.328 97.7614C919.892 98.0895 920.326 98.5502 920.631 99.1435C920.936 99.7334 921.088 100.423 921.088 101.212C921.088 101.994 920.936 102.682 920.631 103.275C920.326 103.865 919.892 104.326 919.328 104.657C918.768 104.985 918.102 105.149 917.33 105.149ZM917.34 103.509C917.691 103.509 917.984 103.409 918.22 103.21C918.455 103.008 918.632 102.733 918.752 102.385C918.874 102.037 918.936 101.641 918.936 101.197C918.936 100.753 918.874 100.357 918.752 100.009C918.632 99.6605 918.455 99.3854 918.22 99.1832C917.984 98.9811 917.691 98.88 917.34 98.88C916.985 98.88 916.687 98.9811 916.445 99.1832C916.206 99.3854 916.026 99.6605 915.903 100.009C915.784 100.357 915.724 100.753 915.724 101.197C915.724 101.641 915.784 102.037 915.903 102.385C916.026 102.733 916.206 103.008 916.445 103.21C916.687 103.409 916.985 103.509 917.34 103.509ZM924.793 100.585V105H922.675V97.3636H924.694V98.7109H924.783C924.952 98.2668 925.236 97.9155 925.634 97.657C926.031 97.3951 926.514 97.2642 927.08 97.2642C927.611 97.2642 928.073 97.3802 928.467 97.6122C928.862 97.8442 929.168 98.1757 929.387 98.6065C929.606 99.0341 929.715 99.5445 929.715 100.138V105H927.597V100.516C927.601 100.048 927.481 99.6837 927.239 99.4219C926.997 99.1567 926.664 99.0241 926.24 99.0241C925.955 99.0241 925.703 99.0855 925.484 99.2081C925.269 99.3307 925.1 99.5097 924.977 99.745C924.858 99.977 924.797 100.257 924.793 100.585ZM938.788 105.139C938.046 105.139 937.385 105.012 936.805 104.756C936.228 104.498 935.772 104.143 935.437 103.692C935.106 103.238 934.935 102.715 934.925 102.121H937.093C937.106 102.37 937.187 102.589 937.337 102.778C937.489 102.963 937.691 103.107 937.943 103.21C938.195 103.313 938.478 103.364 938.793 103.364C939.121 103.364 939.411 103.306 939.663 103.19C939.915 103.074 940.112 102.914 940.255 102.708C940.397 102.503 940.469 102.266 940.469 101.997C940.469 101.725 940.392 101.485 940.24 101.276C940.091 101.064 939.875 100.898 939.594 100.779C939.315 100.66 938.984 100.6 938.599 100.6H937.65V99.0192H938.599C938.924 99.0192 939.211 98.9628 939.459 98.8501C939.711 98.7375 939.907 98.5817 940.046 98.3828C940.185 98.1806 940.255 97.9453 940.255 97.6768C940.255 97.4216 940.194 97.1979 940.071 97.0057C939.952 96.8101 939.783 96.6577 939.564 96.5483C939.348 96.4389 939.097 96.3842 938.808 96.3842C938.517 96.3842 938.25 96.4373 938.008 96.5433C937.766 96.6461 937.572 96.7936 937.426 96.9858C937.28 97.178 937.202 97.4034 937.192 97.6619H935.129C935.139 97.0753 935.307 96.5582 935.631 96.1108C935.956 95.6634 936.394 95.3137 936.944 95.0618C937.497 94.8066 938.122 94.679 938.818 94.679C939.521 94.679 940.136 94.8066 940.663 95.0618C941.19 95.317 941.599 95.6617 941.891 96.0959C942.186 96.5268 942.331 97.0107 942.328 97.5476C942.331 98.1177 942.154 98.5933 941.796 98.9744C941.441 99.3556 940.979 99.5975 940.409 99.7003V99.7798C941.158 99.8759 941.728 100.136 942.119 100.56C942.514 100.981 942.709 101.508 942.706 102.141C942.709 102.721 942.542 103.237 942.204 103.688C941.869 104.138 941.407 104.493 940.817 104.751C940.227 105.01 939.551 105.139 938.788 105.139Z" fill="#040C37"/>
<circle cx="491" cy="61" r="9.5" fill="#0C40E6" stroke="white" stroke-width="7"/>
<rect x="446" y="4" width="87.5873" height="25.5873" rx="9" fill="url(#paint2_linear_4656_21907)"/>
<path d="M459.326 11.8182L461.787 19.554H461.881L464.347 11.8182H466.734L463.224 22H460.45L456.935 11.8182H459.326ZM470.748 22.1491C469.963 22.1491 469.287 21.9901 468.72 21.6719C468.156 21.3504 467.722 20.8963 467.417 20.3097C467.112 19.7197 466.96 19.022 466.96 18.2166C466.96 17.4311 467.112 16.7417 467.417 16.1484C467.722 15.5552 468.151 15.0928 468.705 14.7614C469.262 14.4299 469.915 14.2642 470.664 14.2642C471.167 14.2642 471.636 14.3454 472.071 14.5078C472.508 14.6669 472.889 14.9072 473.214 15.2287C473.542 15.5502 473.797 15.9545 473.98 16.4418C474.162 16.9257 474.253 17.4924 474.253 18.142V18.7237H467.805V17.4112H472.26C472.26 17.1063 472.193 16.8362 472.061 16.6009C471.928 16.3655 471.744 16.1816 471.509 16.049C471.277 15.9131 471.007 15.8452 470.698 15.8452C470.377 15.8452 470.092 15.9197 469.843 16.0689C469.598 16.2147 469.406 16.4119 469.267 16.6605C469.127 16.9058 469.056 17.1792 469.053 17.4808V18.7287C469.053 19.1065 469.122 19.433 469.262 19.7081C469.404 19.9832 469.605 20.1953 469.863 20.3445C470.122 20.4936 470.428 20.5682 470.783 20.5682C471.018 20.5682 471.234 20.535 471.429 20.4688C471.625 20.4025 471.792 20.303 471.931 20.1705C472.071 20.0379 472.177 19.8755 472.25 19.6832L474.208 19.8125C474.109 20.2831 473.905 20.6941 473.597 21.0455C473.292 21.3935 472.898 21.6652 472.414 21.8608C471.933 22.053 471.378 22.1491 470.748 22.1491ZM475.845 22V14.3636H477.899V15.696H477.978C478.117 15.2221 478.351 14.8641 478.679 14.6222C479.007 14.3769 479.385 14.2543 479.813 14.2543C479.919 14.2543 480.033 14.2609 480.156 14.2741C480.278 14.2874 480.386 14.3056 480.479 14.3288V16.2081C480.379 16.1783 480.242 16.1518 480.066 16.1286C479.89 16.1054 479.73 16.0938 479.584 16.0938C479.272 16.0938 478.994 16.1617 478.749 16.2976C478.507 16.4302 478.314 16.6158 478.172 16.8544C478.033 17.093 477.963 17.3681 477.963 17.6797V22H475.845ZM488.137 16.5412L486.199 16.6605C486.165 16.4948 486.094 16.3456 485.985 16.2131C485.875 16.0772 485.731 15.9695 485.552 15.8899C485.377 15.8071 485.166 15.7656 484.921 15.7656C484.593 15.7656 484.316 15.8352 484.091 15.9744C483.865 16.1103 483.753 16.2926 483.753 16.5213C483.753 16.7036 483.825 16.8577 483.971 16.9837C484.117 17.1096 484.367 17.2107 484.722 17.2869L486.104 17.5653C486.847 17.7178 487.4 17.9631 487.765 18.3011C488.129 18.6392 488.311 19.0833 488.311 19.6335C488.311 20.134 488.164 20.5732 487.869 20.951C487.577 21.3288 487.176 21.6238 486.666 21.8359C486.159 22.0447 485.574 22.1491 484.911 22.1491C483.9 22.1491 483.095 21.9387 482.495 21.5178C481.898 21.0935 481.548 20.5168 481.446 19.7876L483.529 19.6783C483.592 19.9865 483.744 20.2218 483.986 20.3842C484.228 20.5433 484.538 20.6229 484.916 20.6229C485.287 20.6229 485.585 20.5516 485.811 20.4091C486.039 20.2633 486.155 20.076 486.159 19.8473C486.155 19.6551 486.074 19.4976 485.915 19.375C485.756 19.2491 485.511 19.1529 485.179 19.0866L483.857 18.8232C483.111 18.674 482.556 18.4155 482.191 18.0476C481.83 17.6797 481.65 17.2107 481.65 16.6406C481.65 16.1501 481.782 15.7275 482.047 15.3729C482.316 15.0182 482.692 14.7448 483.176 14.5526C483.663 14.3603 484.233 14.2642 484.886 14.2642C485.851 14.2642 486.61 14.468 487.163 14.8757C487.72 15.2834 488.045 15.8385 488.137 16.5412ZM489.855 22V14.3636H491.973V22H489.855ZM490.919 13.3793C490.604 13.3793 490.334 13.2749 490.109 13.0661C489.887 12.8539 489.776 12.6004 489.776 12.3054C489.776 12.0137 489.887 11.7635 490.109 11.5547C490.334 11.3426 490.604 11.2365 490.919 11.2365C491.234 11.2365 491.502 11.3426 491.724 11.5547C491.95 11.7635 492.062 12.0137 492.062 12.3054C492.062 12.6004 491.95 12.8539 491.724 13.0661C491.502 13.2749 491.234 13.3793 490.919 13.3793ZM497.33 22.1491C496.558 22.1491 495.89 21.9851 495.326 21.657C494.766 21.3255 494.334 20.8648 494.029 20.2749C493.724 19.6816 493.571 18.9938 493.571 18.2116C493.571 17.4228 493.724 16.7334 494.029 16.1435C494.334 15.5502 494.766 15.0895 495.326 14.7614C495.89 14.4299 496.558 14.2642 497.33 14.2642C498.102 14.2642 498.768 14.4299 499.328 14.7614C499.892 15.0895 500.326 15.5502 500.631 16.1435C500.936 16.7334 501.088 17.4228 501.088 18.2116C501.088 18.9938 500.936 19.6816 500.631 20.2749C500.326 20.8648 499.892 21.3255 499.328 21.657C498.768 21.9851 498.102 22.1491 497.33 22.1491ZM497.34 20.5085C497.691 20.5085 497.984 20.4091 498.22 20.2102C498.455 20.008 498.632 19.733 498.752 19.3849C498.874 19.0369 498.936 18.6409 498.936 18.1967C498.936 17.7526 498.874 17.3565 498.752 17.0085C498.632 16.6605 498.455 16.3854 498.22 16.1832C497.984 15.9811 497.691 15.88 497.34 15.88C496.985 15.88 496.687 15.9811 496.445 16.1832C496.206 16.3854 496.026 16.6605 495.903 17.0085C495.784 17.3565 495.724 17.7526 495.724 18.1967C495.724 18.6409 495.784 19.0369 495.903 19.3849C496.026 19.733 496.206 20.008 496.445 20.2102C496.687 20.4091 496.985 20.5085 497.34 20.5085ZM504.793 17.5852V22H502.675V14.3636H504.694V15.7109H504.783C504.952 15.2668 505.236 14.9155 505.634 14.657C506.031 14.3951 506.514 14.2642 507.08 14.2642C507.611 14.2642 508.073 14.3802 508.467 14.6122C508.862 14.8442 509.168 15.1757 509.387 15.6065C509.606 16.0341 509.715 16.5445 509.715 17.1378V22H507.597V17.5156C507.601 17.0483 507.481 16.6837 507.239 16.4219C506.997 16.1567 506.664 16.0241 506.24 16.0241C505.955 16.0241 505.703 16.0855 505.484 16.2081C505.269 16.3307 505.1 16.5097 504.977 16.745C504.858 16.977 504.797 17.2571 504.793 17.5852ZM515.025 22V20.4489L518.649 17.093C518.957 16.7947 519.216 16.5263 519.425 16.2876C519.637 16.049 519.798 15.8153 519.907 15.5866C520.016 15.3546 520.071 15.1044 520.071 14.8359C520.071 14.5376 520.003 14.2808 519.867 14.0653C519.731 13.8466 519.546 13.6792 519.31 13.5632C519.075 13.4439 518.808 13.3842 518.51 13.3842C518.198 13.3842 517.927 13.4472 517.695 13.5732C517.463 13.6991 517.284 13.8797 517.158 14.1151C517.032 14.3504 516.969 14.6304 516.969 14.9553H514.925C514.925 14.2891 515.076 13.7107 515.378 13.2202C515.679 12.7296 516.102 12.3501 516.646 12.0817C517.189 11.8132 517.816 11.679 518.525 11.679C519.254 11.679 519.889 11.8082 520.429 12.0668C520.972 12.322 521.395 12.6766 521.697 13.1307C521.998 13.5848 522.149 14.1051 522.149 14.6918C522.149 15.0762 522.073 15.4557 521.92 15.8303C521.771 16.2048 521.504 16.6207 521.12 17.0781C520.736 17.5322 520.194 18.0774 519.494 18.7138L518.008 20.1705V20.2401H522.283V22H515.025Z" fill="#040C37"/>
<circle cx="62.0844" cy="58.0844" r="9.58437" fill="#0C40E6" stroke="white" stroke-width="7"/>
<rect y="84" width="88.1558" height="25.7534" rx="9" fill="url(#paint3_linear_4656_21907)"/>
<path d="M13.3963 91.8455L15.8572 99.5813H15.9517L18.4176 91.8455H20.804L17.294 102.027H14.5199L11.005 91.8455H13.3963ZM24.8185 102.176C24.033 102.176 23.3568 102.017 22.7901 101.699C22.2266 101.378 21.7924 100.924 21.4875 100.337C21.1826 99.747 21.0301 99.0494 21.0301 98.244C21.0301 97.4585 21.1826 96.7691 21.4875 96.1758C21.7924 95.5825 22.2217 95.1201 22.7752 94.7887C23.332 94.4573 23.9849 94.2915 24.734 94.2915C25.2378 94.2915 25.7067 94.3728 26.1409 94.5352C26.5784 94.6942 26.9596 94.9345 27.2844 95.256C27.6125 95.5775 27.8677 95.9819 28.05 96.4691C28.2323 96.953 28.3235 97.5198 28.3235 98.1694V98.7511H21.8753V97.4386H26.3299C26.3299 97.1336 26.2636 96.8635 26.131 96.6282C25.9984 96.3929 25.8145 96.2089 25.5791 96.0763C25.3471 95.9405 25.077 95.8725 24.7688 95.8725C24.4473 95.8725 24.1622 95.9471 23.9137 96.0962C23.6684 96.2421 23.4762 96.4393 23.337 96.6879C23.1977 96.9331 23.1265 97.2066 23.1232 97.5082V98.756C23.1232 99.1339 23.1928 99.4603 23.332 99.7354C23.4745 100.011 23.675 100.223 23.9335 100.372C24.1921 100.521 24.4986 100.596 24.8533 100.596C25.0886 100.596 25.304 100.562 25.4996 100.496C25.6951 100.43 25.8625 100.33 26.0017 100.198C26.1409 100.065 26.247 99.9028 26.3199 99.7106L28.2787 99.8398C28.1793 100.31 27.9754 100.721 27.6672 101.073C27.3623 101.421 26.9679 101.693 26.484 101.888C26.0034 102.08 25.4482 102.176 24.8185 102.176ZM29.9156 102.027V94.391H31.9688V95.7234H32.0484C32.1876 95.2494 32.4212 94.8915 32.7494 94.6495C33.0775 94.4042 33.4553 94.2816 33.8829 94.2816C33.989 94.2816 34.1033 94.2882 34.2259 94.3015C34.3486 94.3147 34.4563 94.333 34.5491 94.3562V96.2354C34.4497 96.2056 34.3121 96.1791 34.1364 96.1559C33.9608 96.1327 33.8 96.1211 33.6542 96.1211C33.3426 96.1211 33.0642 96.189 32.819 96.3249C32.577 96.4575 32.3848 96.6431 32.2423 96.8817C32.1031 97.1204 32.0335 97.3955 32.0335 97.707V102.027H29.9156ZM42.2078 96.5685L40.2688 96.6879C40.2357 96.5221 40.1644 96.373 40.0551 96.2404C39.9457 96.1045 39.8015 95.9968 39.6225 95.9173C39.4469 95.8344 39.2364 95.793 38.9911 95.793C38.663 95.793 38.3863 95.8626 38.1609 96.0018C37.9355 96.1377 37.8228 96.32 37.8228 96.5487C37.8228 96.7309 37.8957 96.8851 38.0416 97.011C38.1874 97.137 38.4376 97.238 38.7923 97.3143L40.1744 97.5927C40.9168 97.7451 41.4703 97.9904 41.8349 98.3285C42.1995 98.6665 42.3818 99.1107 42.3818 99.6609C42.3818 100.161 42.2343 100.6 41.9393 100.978C41.6476 101.356 41.2466 101.651 40.7362 101.863C40.2291 102.072 39.6441 102.176 38.9812 102.176C37.9703 102.176 37.1649 101.966 36.565 101.545C35.9684 101.121 35.6188 100.544 35.516 99.815L37.5991 99.7056C37.6621 100.014 37.8145 100.249 38.0565 100.412C38.2984 100.571 38.6083 100.65 38.9862 100.65C39.3574 100.65 39.6557 100.579 39.8811 100.436C40.1098 100.291 40.2258 100.103 40.2291 99.8746C40.2258 99.6824 40.1446 99.525 39.9855 99.4023C39.8264 99.2764 39.5811 99.1803 39.2497 99.114L37.9272 98.8505C37.1815 98.7013 36.6263 98.4428 36.2617 98.0749C35.9005 97.707 35.7198 97.238 35.7198 96.668C35.7198 96.1774 35.8524 95.7549 36.1176 95.4002C36.386 95.0456 36.7622 94.7721 37.2461 94.5799C37.7333 94.3877 38.3034 94.2915 38.9563 94.2915C39.9208 94.2915 40.6798 94.4954 41.2333 94.9031C41.7902 95.3107 42.115 95.8659 42.2078 96.5685ZM43.9254 102.027V94.391H46.0433V102.027H43.9254ZM44.9893 93.4066C44.6745 93.4066 44.4043 93.3022 44.179 93.0934C43.9569 92.8813 43.8459 92.6277 43.8459 92.3327C43.8459 92.0411 43.9569 91.7908 44.179 91.582C44.4043 91.3699 44.6745 91.2638 44.9893 91.2638C45.3042 91.2638 45.5727 91.3699 45.7947 91.582C46.0201 91.7908 46.1328 92.0411 46.1328 92.3327C46.1328 92.6277 46.0201 92.8813 45.7947 93.0934C45.5727 93.3022 45.3042 93.4066 44.9893 93.4066ZM51.4001 102.176C50.6279 102.176 49.96 102.012 49.3966 101.684C48.8365 101.353 48.4039 100.892 48.099 100.302C47.7941 99.7089 47.6416 99.0212 47.6416 98.239C47.6416 97.4502 47.7941 96.7608 48.099 96.1708C48.4039 95.5775 48.8365 95.1168 49.3966 94.7887C49.96 94.4573 50.6279 94.2915 51.4001 94.2915C52.1724 94.2915 52.8386 94.4573 53.3987 94.7887C53.9622 95.1168 54.3964 95.5775 54.7013 96.1708C55.0062 96.7608 55.1587 97.4502 55.1587 98.239C55.1587 99.0212 55.0062 99.7089 54.7013 100.302C54.3964 100.892 53.9622 101.353 53.3987 101.684C52.8386 102.012 52.1724 102.176 51.4001 102.176ZM51.4101 100.536C51.7614 100.536 52.0547 100.436 52.2901 100.238C52.5254 100.035 52.7027 99.7603 52.822 99.4123C52.9446 99.0643 53.006 98.6682 53.006 98.2241C53.006 97.7799 52.9446 97.3839 52.822 97.0359C52.7027 96.6879 52.5254 96.4128 52.2901 96.2106C52.0547 96.0084 51.7614 95.9073 51.4101 95.9073C51.0554 95.9073 50.7571 96.0084 50.5152 96.2106C50.2766 96.4128 50.0959 96.6879 49.9733 97.0359C49.854 97.3839 49.7943 97.7799 49.7943 98.2241C49.7943 98.6682 49.854 99.0643 49.9733 99.4123C50.0959 99.7603 50.2766 100.035 50.5152 100.238C50.7571 100.436 51.0554 100.536 51.4101 100.536ZM58.8637 97.6126V102.027H56.7458V94.391H58.7643V95.7383H58.8537C59.0228 95.2942 59.3062 94.9428 59.7039 94.6843C60.1016 94.4225 60.5839 94.2915 61.1506 94.2915C61.6809 94.2915 62.1433 94.4076 62.5377 94.6396C62.9321 94.8716 63.2387 95.203 63.4574 95.6339C63.6762 96.0614 63.7856 96.5719 63.7856 97.1651V102.027H61.6677V97.543C61.671 97.0756 61.5517 96.7111 61.3097 96.4492C61.0678 96.1841 60.7347 96.0515 60.3104 96.0515C60.0254 96.0515 59.7735 96.1128 59.5547 96.2354C59.3393 96.3581 59.1703 96.5371 59.0476 96.7724C58.9283 97.0044 58.867 97.2844 58.8637 97.6126ZM73.5248 91.8455V102.027H71.3721V93.8888H71.3125L68.9808 95.3505V93.4414L71.5014 91.8455H73.5248Z" fill="#040C37"/>
<defs>
<linearGradient id="paint0_linear_4656_21907" x1="1294.12" y1="13" x2="1454" y2="13" gradientUnits="userSpaceOnUse">
<stop offset="0.158643" stop-color="#00D7FF"/>
<stop offset="1" stop-color="#0D3FE6"/>
</linearGradient>
<linearGradient id="paint1_linear_4656_21907" x1="862.063" y1="99.7936" x2="953.587" y2="99.7936" gradientUnits="userSpaceOnUse">
<stop offset="0.158643" stop-color="#00D7FF"/>
<stop offset="1" stop-color="#0D3FE6"/>
</linearGradient>
<linearGradient id="paint2_linear_4656_21907" x1="442.063" y1="16.7936" x2="533.587" y2="16.7936" gradientUnits="userSpaceOnUse">
<stop offset="0.158643" stop-color="#00D7FF"/>
<stop offset="1" stop-color="#0D3FE6"/>
</linearGradient>
<linearGradient id="paint3_linear_4656_21907" x1="-3.96206" y1="96.8767" x2="88.1558" y2="96.8767" gradientUnits="userSpaceOnUse">
<stop offset="0.158643" stop-color="#00D7FF"/>
<stop offset="1" stop-color="#0D3FE6"/>
</linearGradient>
</defs>
</svg>
