<svg width="228" height="45" viewBox="0 0 228 45" fill="none" xmlns="http://www.w3.org/2000/svg">
<path d="M49.346 32.286C47.0753 32.286 45.2467 31.5233 43.86 29.998C42.4733 28.4727 41.78 26.4533 41.78 23.94C41.78 21.08 42.6467 18.6707 44.38 16.712C46.1133 14.7533 48.2453 13.774 50.776 13.774C51.7813 13.774 52.7087 13.8693 53.558 14.06C54.4247 14.2333 55.04 14.4153 55.404 14.606L55.924 14.892L54.416 18.506C53.896 18.1593 53.194 17.8387 52.31 17.544C51.426 17.232 50.646 17.076 49.97 17.076C48.566 17.076 47.4393 17.57 46.59 18.558C45.7407 19.546 45.316 20.8547 45.316 22.484C45.316 24.6853 45.7147 26.4013 46.512 27.632C47.3267 28.8627 48.4533 29.478 49.892 29.478C50.828 29.478 51.712 29.348 52.544 29.088V25.058H49.19L49.45 22.432H55.69L55.456 26.67L55.638 31.168C53.09 31.9133 50.9927 32.286 49.346 32.286ZM63.7173 29.348C64.22 29.348 64.7486 29.218 65.3033 28.958C65.858 28.698 66.2913 28.438 66.6033 28.178L67.0713 27.788L68.2673 29.244C68.094 29.5387 67.8253 29.8767 67.4613 30.258C67.0973 30.6393 66.7246 30.9687 66.3433 31.246C65.9793 31.506 65.4853 31.7487 64.8613 31.974C64.2546 32.182 63.622 32.286 62.9633 32.286C61.5593 32.286 60.4153 31.7573 59.5313 30.7C58.6473 29.6253 58.2053 28.2473 58.2053 26.566C58.2053 24.4513 58.8206 22.5967 60.0513 21.002C61.282 19.4073 62.7206 18.61 64.3673 18.61C65.6326 18.61 66.612 18.9653 67.3053 19.676C68.016 20.3867 68.3713 21.3833 68.3713 22.666C68.3713 23.4287 68.2413 24.2953 67.9813 25.266L67.4613 25.812L60.9613 26.41C61.256 28.3687 62.1746 29.348 63.7173 29.348ZM63.7173 21.288C62.9546 21.288 62.3133 21.6 61.7933 22.224C61.2733 22.8307 60.97 23.6107 60.8833 24.564L65.3033 24.018C65.3553 23.6193 65.3813 23.29 65.3813 23.03C65.3813 21.8687 64.8266 21.288 63.7173 21.288ZM78.1808 25.422C78.1808 24.226 78.0768 23.4287 77.8688 23.03C77.6608 22.6313 77.1755 22.432 76.4128 22.432C75.6501 22.432 74.7835 22.7353 73.8128 23.342V25.24L74.0988 31.35L70.6148 32L70.9268 25.682C70.8575 23.3593 70.6668 21.2793 70.3548 19.442L73.5008 18.766C73.6221 19.7713 73.7088 20.7507 73.7608 21.704C74.0208 21.3573 74.3155 21.0193 74.6448 20.69C74.9741 20.3433 75.4941 19.962 76.2048 19.546C76.9155 19.1127 77.6348 18.896 78.3628 18.896C79.0908 18.896 79.7061 19.13 80.2088 19.598C80.7115 20.066 81.0321 20.7073 81.1708 21.522C82.6095 19.7713 84.0655 18.896 85.5388 18.896C86.4575 18.896 87.1855 19.208 87.7228 19.832C88.2601 20.4387 88.5288 21.2707 88.5288 22.328L88.3728 25.24L88.6588 31.48L85.1488 32.13L85.4608 25.422C85.4608 24.226 85.3568 23.4287 85.1488 23.03C84.9408 22.6313 84.4641 22.432 83.7188 22.432C82.9735 22.432 82.1328 22.718 81.1968 23.29L81.0928 25.24L81.3788 31.48L77.8688 32.13L78.1808 25.422ZM89.4839 17.05L89.7699 14.06H102.12L101.834 17.05L97.3099 16.66L97.2059 25.24L97.5179 32H93.8779L94.1899 25.682L94.0859 16.686L89.4839 17.05ZM102.336 26.566C102.336 24.3473 102.934 22.4667 104.13 20.924C105.326 19.3813 106.722 18.61 108.316 18.61C109.928 18.61 111.176 19.13 112.06 20.17C112.962 21.21 113.412 22.588 113.412 24.304C113.412 26.592 112.832 28.4987 111.67 30.024C110.526 31.532 109.079 32.286 107.328 32.286C105.89 32.286 104.694 31.7487 103.74 30.674C102.804 29.582 102.336 28.2127 102.336 26.566ZM110.5 25.656C110.5 23.1427 109.642 21.886 107.926 21.886C106.141 21.886 105.248 23.0647 105.248 25.422C105.248 26.6527 105.5 27.6147 106.002 28.308C106.505 29.0013 107.164 29.348 107.978 29.348C108.81 29.348 109.434 29.036 109.85 28.412C110.284 27.7707 110.5 26.852 110.5 25.656ZM122.601 18.87C123.711 18.87 124.638 19.3553 125.383 20.326C126.146 21.2967 126.527 22.6053 126.527 24.252C126.527 26.5573 125.929 28.4293 124.733 29.868C123.555 31.2893 122.081 32 120.313 32C119.949 32 119.542 31.974 119.091 31.922L119.221 36.888L115.659 37.538L115.997 25.682H116.023C115.954 23.3593 115.763 21.2793 115.451 19.442L118.597 18.766C118.701 19.6847 118.788 20.5947 118.857 21.496C118.892 21.4093 119.065 21.1753 119.377 20.794C119.707 20.3953 120.183 19.9793 120.807 19.546C121.431 19.0953 122.029 18.87 122.601 18.87ZM121.587 22.25C120.669 22.25 119.776 22.5013 118.909 23.004V25.24L119.013 28.958C119.949 29.114 120.66 29.192 121.145 29.192C122.809 29.192 123.641 28.0393 123.641 25.734C123.641 23.4113 122.957 22.25 121.587 22.25ZM133.079 18.766L132.767 25.24L133.053 31.35L129.569 32L129.881 25.682L129.595 19.416L133.079 18.766ZM129.413 14.97C129.413 14.3807 129.638 13.8607 130.089 13.41C130.539 12.942 131.059 12.708 131.649 12.708C132.238 12.708 132.689 12.8727 133.001 13.202C133.313 13.514 133.469 13.9907 133.469 14.632C133.469 15.2733 133.243 15.828 132.793 16.296C132.359 16.7467 131.848 16.972 131.259 16.972C130.687 16.972 130.236 16.7813 129.907 16.4C129.577 16.0187 129.413 15.542 129.413 14.97ZM139.452 32C138.43 32 137.589 31.6793 136.93 31.038C136.289 30.3793 135.968 29.504 135.968 28.412C135.968 27.3027 136.471 26.3493 137.476 25.552C138.482 24.7373 139.704 24.33 141.142 24.33H142.91V23.888C142.91 23.0387 142.737 22.458 142.39 22.146C142.044 21.834 141.394 21.678 140.44 21.678C140.042 21.678 139.565 21.7647 139.01 21.938C138.473 22.094 137.866 22.3453 137.19 22.692L136.436 20.638C137.182 20.118 138.083 19.65 139.14 19.234C140.215 18.818 141.099 18.61 141.792 18.61C144.514 18.61 145.874 19.9273 145.874 22.562V27.658C145.874 28.6287 146.178 29.712 146.784 30.908L144.028 32.078C143.595 31.246 143.274 30.5007 143.066 29.842C142.113 31.2807 140.908 32 139.452 32ZM140.544 29.348C141.238 29.348 142.026 28.9927 142.91 28.282V26.54C141.992 26.332 141.246 26.228 140.674 26.228C139.582 26.228 139.036 26.7133 139.036 27.684C139.036 28.1867 139.175 28.594 139.452 28.906C139.73 29.2007 140.094 29.348 140.544 29.348Z" fill="#0096FF"/>
<path d="M29.2728 26.1328L18.498 0V23.6205L29.2728 26.1328Z" fill="url(#paint0_linear_4639_27300)"/>
<g filter="url(#filter0_d_4639_27300)">
<path d="M7.72333 26.1328L18.498 0V23.6205L7.72333 26.1328Z" fill="url(#paint1_linear_4639_27300)" shape-rendering="crispEdges"/>
</g>
<path d="M18.498 37.9308L29.2728 26.1329L18.498 23.6206V37.9308Z" fill="url(#paint2_linear_4639_27300)"/>
<path d="M18.498 37.9308L7.72333 26.1329L18.498 23.6206V37.9308Z" fill="url(#paint3_linear_4639_27300)"/>
<path fill-rule="evenodd" clip-rule="evenodd" d="M29.5385 28.847L23.8752 35.1277L23.875 35.1279C31.5097 33.0119 37.002 27.1231 37.002 20.1897C37.002 14.2846 33.018 9.13727 27.1196 6.43311C31.7589 8.90638 34.8533 13.3534 34.8533 18.4282C34.8533 22.5589 32.8031 26.2737 29.5384 28.8467L29.5385 28.847Z" fill="url(#paint4_linear_4639_27300)"/>
<path fill-rule="evenodd" clip-rule="evenodd" d="M7.46349 28.8478C4.19882 26.2748 2.14867 22.56 2.14867 18.4293C2.14867 13.3517 5.2465 8.90263 9.89004 6.43018C3.98742 9.13339 0 14.2826 0 20.1903C0 27.1237 5.4921 33.0123 13.1266 35.1284L7.46348 28.8478L7.46349 28.8478Z" fill="url(#paint5_linear_4639_27300)"/>
<defs>
<filter id="filter0_d_4639_27300" x="3.72266" y="0" width="18.7754" height="34.1328" filterUnits="userSpaceOnUse" color-interpolation-filters="sRGB">
<feFlood flood-opacity="0" result="BackgroundImageFix"/>
<feColorMatrix in="SourceAlpha" type="matrix" values="0 0 0 0 0 0 0 0 0 0 0 0 0 0 0 0 0 0 127 0" result="hardAlpha"/>
<feOffset dy="4"/>
<feGaussianBlur stdDeviation="2"/>
<feComposite in2="hardAlpha" operator="out"/>
<feColorMatrix type="matrix" values="0 0 0 0 0 0 0 0 0 0 0 0 0 0 0 0 0 0 0.25 0"/>
<feBlend mode="normal" in2="BackgroundImageFix" result="effect1_dropShadow_4639_27300"/>
<feBlend mode="normal" in="SourceGraphic" in2="effect1_dropShadow_4639_27300" result="shape"/>
</filter>
<linearGradient id="paint0_linear_4639_27300" x1="18.7512" y1="3.37739" x2="22.3717" y2="31.7082" gradientUnits="userSpaceOnUse">
<stop stop-color="#00D7FF"/>
<stop offset="1" stop-color="#1226FF" stop-opacity="0.84"/>
<stop offset="1" stop-color="#1226FF" stop-opacity="0.84"/>
</linearGradient>
<linearGradient id="paint1_linear_4639_27300" x1="9.00098" y1="-1.5" x2="13.7151" y2="24.5071" gradientUnits="userSpaceOnUse">
<stop stop-color="#1226FF" stop-opacity="0.84"/>
<stop offset="1" stop-color="#00D7FF"/>
</linearGradient>
<linearGradient id="paint2_linear_4639_27300" x1="23.8197" y1="22.6027" x2="19.3206" y2="38.7287" gradientUnits="userSpaceOnUse">
<stop stop-color="#00D7FF"/>
<stop offset="1" stop-color="#1226FF"/>
</linearGradient>
<linearGradient id="paint3_linear_4639_27300" x1="18.7512" y1="37.9308" x2="17.2989" y2="19.8158" gradientUnits="userSpaceOnUse">
<stop stop-color="#00D7FF"/>
<stop offset="1" stop-color="#1226FF"/>
</linearGradient>
<linearGradient id="paint4_linear_4639_27300" x1="31.1732" y1="9.61634" x2="30.4683" y2="32.7599" gradientUnits="userSpaceOnUse">
<stop stop-color="#63D7EE"/>
<stop offset="1" stop-color="#012A96"/>
</linearGradient>
<linearGradient id="paint5_linear_4639_27300" x1="5.82858" y1="9.6138" x2="6.53368" y2="32.7601" gradientUnits="userSpaceOnUse">
<stop stop-color="#63D7EE"/>
<stop offset="1" stop-color="#012A96"/>
</linearGradient>
</defs>
</svg>
