<svg width="228" height="46" viewBox="0 0 228 46" fill="none" xmlns="http://www.w3.org/2000/svg">
<path d="M51.612 34.28C50.5667 34.28 49.6427 34.2333 48.84 34.14C48.0373 34.0467 47.244 33.888 46.46 33.664C45.62 33.44 44.9293 33.1413 44.388 32.768C43.8467 32.376 43.408 31.872 43.072 31.256C42.736 30.6027 42.568 29.856 42.568 29.016V21.456C42.568 20.5413 42.7547 19.72 43.128 18.992C43.5013 18.2453 44.0053 17.6573 44.64 17.228C45.2373 16.836 45.9467 16.5 46.768 16.22C47.608 15.94 48.4293 15.7533 49.232 15.66C49.904 15.5853 50.716 15.548 51.668 15.548C54.244 15.548 56.708 15.744 59.06 16.136V19.44C56.8947 18.9173 54.4307 18.656 51.668 18.656C48.5133 18.656 46.936 19.5707 46.936 21.4V28.708C46.936 29.604 47.356 30.2387 48.196 30.612C49.0547 30.9853 50.3427 31.172 52.06 31.172C52.9747 31.172 53.9547 31.032 55 30.752V26.524H52.032V23.668H59.172V33.104C58.2387 33.44 57.044 33.72 55.588 33.944C54.1507 34.168 52.8253 34.28 51.612 34.28ZM69.7582 34.28C64.9609 34.28 62.5622 32.8147 62.5622 29.884V25.012C62.5622 23.3133 63.1035 22.0813 64.1862 21.316C65.2875 20.5507 66.9769 20.168 69.2542 20.168C71.4009 20.168 72.9689 20.5413 73.9582 21.288C74.9662 22.016 75.4702 23.2573 75.4702 25.012V28.316H66.6782V29.548C66.6782 30.332 66.9582 30.892 67.5182 31.228C68.0782 31.564 69.0862 31.732 70.5422 31.732C71.8862 31.732 73.3982 31.536 75.0782 31.144V33.748C73.4169 34.1027 71.6435 34.28 69.7582 34.28ZM71.5782 25.992V24.032C71.5782 23.584 71.3915 23.248 71.0182 23.024C70.6635 22.8 70.0569 22.688 69.1982 22.688C68.2089 22.688 67.5462 22.8 67.2102 23.024C66.8555 23.2667 66.6782 23.6027 66.6782 24.032V25.992H71.5782ZM79.0148 20.448H83.1028V22.1C83.3641 20.812 84.6988 20.168 87.1068 20.168C88.3761 20.168 89.3375 20.336 89.9908 20.672C90.6441 20.9893 91.0828 21.4933 91.3068 22.184C91.5308 21.4747 91.9601 20.9613 92.5948 20.644C93.2481 20.3267 94.2281 20.168 95.5348 20.168C96.7108 20.168 97.6161 20.308 98.2508 20.588C98.8855 20.8493 99.3241 21.26 99.5668 21.82C99.8281 22.38 99.9588 23.1267 99.9588 24.06V34H95.8708V24.62C95.8708 24.0227 95.8335 23.6027 95.7588 23.36C95.6841 23.0987 95.5161 22.9213 95.2548 22.828C95.0121 22.7347 94.5828 22.688 93.9668 22.688C93.2015 22.688 92.6508 22.7347 92.3148 22.828C91.9975 22.9213 91.7828 23.0987 91.6708 23.36C91.5775 23.6027 91.5308 24.0227 91.5308 24.62V34H87.4428V24.62C87.4428 24.0227 87.4055 23.6027 87.3308 23.36C87.2561 23.0987 87.0881 22.9213 86.8268 22.828C86.5841 22.7347 86.1548 22.688 85.5388 22.688C84.7735 22.688 84.2228 22.7347 83.8868 22.828C83.5695 22.9213 83.3548 23.0987 83.2428 23.36C83.1495 23.6027 83.1028 24.0227 83.1028 24.62V34H79.0148V20.448ZM104.41 18.936H98.8102V15.828H114.35V18.936H108.778V34H104.41V18.936ZM120.67 34.28C119.831 34.28 119.14 34.252 118.599 34.196C118.057 34.14 117.478 34.028 116.863 33.86C116.19 33.6733 115.649 33.412 115.238 33.076C114.828 32.7213 114.482 32.2267 114.202 31.592C113.922 30.976 113.782 30.2293 113.782 29.352V25.348C113.782 24.452 113.922 23.668 114.202 22.996C114.482 22.324 114.846 21.8013 115.294 21.428C115.686 21.1107 116.2 20.8493 116.834 20.644C117.488 20.42 118.122 20.28 118.739 20.224C119.448 20.1867 120.092 20.168 120.67 20.168C121.529 20.168 122.211 20.196 122.715 20.252C123.237 20.2893 123.807 20.4013 124.422 20.588C125.095 20.7933 125.636 21.0733 126.047 21.428C126.476 21.7827 126.84 22.2867 127.138 22.94C127.419 23.612 127.559 24.4147 127.559 25.348V29.352C127.559 30.192 127.419 30.9293 127.138 31.564C126.877 32.1987 126.532 32.6933 126.102 33.048C125.729 33.3653 125.216 33.6267 124.563 33.832C123.928 34.0187 123.303 34.14 122.687 34.196C122.127 34.252 121.455 34.28 120.67 34.28ZM120.67 31.732C121.436 31.732 122.015 31.676 122.406 31.564C122.798 31.4333 123.069 31.2373 123.219 30.976C123.387 30.7147 123.471 30.332 123.471 29.828V24.704C123.471 23.9573 123.275 23.4347 122.883 23.136C122.491 22.8373 121.753 22.688 120.67 22.688C119.588 22.688 118.85 22.8373 118.458 23.136C118.066 23.4347 117.87 23.9573 117.87 24.704V29.828C117.87 30.332 117.945 30.7147 118.095 30.976C118.263 31.2373 118.543 31.4333 118.935 31.564C119.327 31.676 119.905 31.732 120.67 31.732ZM131.165 20.448H135.029V21.792C135.271 21.1947 135.747 20.7747 136.457 20.532C137.166 20.2893 138.221 20.168 139.621 20.168C140.797 20.168 141.739 20.2613 142.449 20.448C143.177 20.6347 143.727 20.9333 144.101 21.344C144.455 21.7547 144.698 22.212 144.829 22.716C144.959 23.2013 145.025 23.8733 145.025 24.732V29.184C145.025 30.528 144.829 31.564 144.437 32.292C144.045 33.02 143.438 33.5333 142.617 33.832C141.814 34.1307 140.713 34.28 139.313 34.28C137.969 34.28 136.998 34.168 136.401 33.944C135.803 33.72 135.421 33.2813 135.253 32.628V39.824H131.165V20.448ZM138.053 31.732C138.855 31.732 139.462 31.676 139.873 31.564C140.283 31.452 140.563 31.256 140.713 30.976C140.862 30.696 140.937 30.276 140.937 29.716V24.704C140.937 24.088 140.871 23.6493 140.741 23.388C140.61 23.108 140.349 22.9213 139.957 22.828C139.565 22.7347 138.921 22.688 138.025 22.688C137.259 22.688 136.671 22.7533 136.261 22.884C135.869 23.0147 135.598 23.22 135.449 23.5C135.318 23.78 135.253 24.1813 135.253 24.704V29.716C135.253 30.276 135.318 30.696 135.449 30.976C135.598 31.256 135.869 31.452 136.261 31.564C136.653 31.676 137.25 31.732 138.053 31.732ZM148.759 15.548H152.847V18.852H148.759V15.548ZM148.759 20.448H152.847V34H148.759V20.448ZM160.806 34.28C159.536 34.28 158.584 34.168 157.95 33.944C157.334 33.7013 156.895 33.2813 156.634 32.684C156.391 32.068 156.27 31.1533 156.27 29.94C156.27 28.8573 156.4 28.008 156.662 27.392C156.942 26.776 157.38 26.3373 157.978 26.076C158.594 25.796 159.434 25.656 160.498 25.656H165.09V24.732C165.09 24.1533 165.006 23.724 164.838 23.444C164.688 23.164 164.399 22.968 163.97 22.856C163.559 22.744 162.934 22.688 162.094 22.688C160.936 22.688 159.35 22.8 157.334 23.024V20.448C158.808 20.2613 160.535 20.168 162.514 20.168C164.25 20.168 165.584 20.2987 166.518 20.56C167.47 20.8213 168.151 21.2693 168.562 21.904C168.972 22.5387 169.178 23.4627 169.178 24.676V34H165.174V32.768C164.856 33.3093 164.427 33.692 163.886 33.916C163.344 34.1587 162.318 34.28 160.806 34.28ZM162.402 31.732C163.223 31.732 163.811 31.704 164.166 31.648C164.427 31.6107 164.604 31.5547 164.698 31.48C164.81 31.4053 164.903 31.284 164.978 31.116C165.052 30.9853 165.09 30.7893 165.09 30.528V27.896H162.29C161.655 27.896 161.207 27.9427 160.946 28.036C160.684 28.1107 160.507 28.2787 160.414 28.54C160.32 28.7827 160.274 29.2213 160.274 29.856C160.274 30.472 160.32 30.9013 160.414 31.144C160.507 31.3867 160.684 31.5453 160.946 31.62C161.226 31.6947 161.711 31.732 162.402 31.732Z" fill="#0096FF"/>
<path d="M29.2718 26.1328L18.4971 0V23.6205L29.2718 26.1328Z" fill="url(#paint0_linear_2493_20540)"/>
<g filter="url(#filter0_d_2493_20540)">
<path d="M7.72235 26.1328L18.4971 0V23.6205L7.72235 26.1328Z" fill="url(#paint1_linear_2493_20540)"/>
</g>
<path d="M18.4971 37.9303L29.2718 26.1324L18.4971 23.6201V37.9303Z" fill="url(#paint2_linear_2493_20540)"/>
<path d="M18.4971 37.9303L7.72235 26.1324L18.4971 23.6201V37.9303Z" fill="url(#paint3_linear_2493_20540)"/>
<path fill-rule="evenodd" clip-rule="evenodd" d="M29.5385 28.8475L23.8752 35.1282L23.875 35.1284C31.5097 33.0124 37.002 27.1236 37.002 20.1902C37.002 14.2851 33.018 9.13776 27.1196 6.43359C31.7589 8.90686 34.8533 13.3539 34.8533 18.4286C34.8533 22.5594 32.8031 26.2742 29.5384 28.8472L29.5385 28.8475Z" fill="url(#paint4_linear_2493_20540)"/>
<path fill-rule="evenodd" clip-rule="evenodd" d="M7.46349 28.8473C4.19882 26.2743 2.14867 22.5595 2.14867 18.4289C2.14867 13.3513 5.2465 8.90214 9.89004 6.42969C3.98742 9.1329 0 14.2821 0 20.1898C0 27.1232 5.4921 33.0118 13.1266 35.1279L7.46348 28.8473L7.46349 28.8473Z" fill="url(#paint5_linear_2493_20540)"/>
<defs>
<filter id="filter0_d_2493_20540" x="3.72266" y="0" width="18.7744" height="34.1328" filterUnits="userSpaceOnUse" color-interpolation-filters="sRGB">
<feFlood flood-opacity="0" result="BackgroundImageFix"/>
<feColorMatrix in="SourceAlpha" type="matrix" values="0 0 0 0 0 0 0 0 0 0 0 0 0 0 0 0 0 0 127 0" result="hardAlpha"/>
<feOffset dy="4"/>
<feGaussianBlur stdDeviation="2"/>
<feComposite in2="hardAlpha" operator="out"/>
<feColorMatrix type="matrix" values="0 0 0 0 0 0 0 0 0 0 0 0 0 0 0 0 0 0 0.25 0"/>
<feBlend mode="normal" in2="BackgroundImageFix" result="effect1_dropShadow_2493_20540"/>
<feBlend mode="normal" in="SourceGraphic" in2="effect1_dropShadow_2493_20540" result="shape"/>
</filter>
<linearGradient id="paint0_linear_2493_20540" x1="18.7502" y1="3.37739" x2="20.6198" y2="23.7492" gradientUnits="userSpaceOnUse">
<stop stop-color="#00D7FF"/>
<stop offset="1" stop-color="#3B48FF"/>
</linearGradient>
<linearGradient id="paint1_linear_2493_20540" x1="10.8941" y1="3.63719" x2="13.8084" y2="24.4743" gradientUnits="userSpaceOnUse">
<stop stop-color="#3B48FF"/>
<stop offset="1" stop-color="#00D7FF"/>
</linearGradient>
<linearGradient id="paint2_linear_2493_20540" x1="23.8187" y1="22.6022" x2="21.5098" y2="37.0085" gradientUnits="userSpaceOnUse">
<stop stop-color="#00D7FF"/>
<stop offset="1" stop-color="#3B48FF"/>
</linearGradient>
<linearGradient id="paint3_linear_2493_20540" x1="18.7502" y1="37.9303" x2="18.4639" y2="26.2031" gradientUnits="userSpaceOnUse">
<stop stop-color="#00D7FF"/>
<stop offset="1" stop-color="#3B48FF"/>
</linearGradient>
<linearGradient id="paint4_linear_2493_20540" x1="31.1732" y1="9.61683" x2="30.4683" y2="32.7604" gradientUnits="userSpaceOnUse">
<stop stop-color="#63D7EE"/>
<stop offset="1" stop-color="#012A96"/>
</linearGradient>
<linearGradient id="paint5_linear_2493_20540" x1="5.82858" y1="9.61331" x2="6.53368" y2="32.7596" gradientUnits="userSpaceOnUse">
<stop stop-color="#63D7EE"/>
<stop offset="1" stop-color="#012A96"/>
</linearGradient>
</defs>
</svg>
