<svg width="28" height="28" viewBox="0 0 28 28" fill="none" xmlns="http://www.w3.org/2000/svg">
<path d="M6.79601 4.23642L14.0013 11.4418L21.1693 4.27376C21.3277 4.10523 21.5184 3.97041 21.7301 3.87739C21.9418 3.78437 22.1701 3.73506 22.4013 3.73242C22.8964 3.73242 23.3712 3.92909 23.7213 4.27916C24.0713 4.62922 24.268 5.10402 24.268 5.59909C24.2724 5.82795 24.2299 6.05528 24.1432 6.26713C24.0566 6.47899 23.9275 6.6709 23.764 6.83109L16.5027 13.9991L23.764 21.2604C24.0717 21.5614 24.2521 21.969 24.268 22.3991C24.268 22.8942 24.0713 23.369 23.7213 23.719C23.3712 24.0691 22.8964 24.2658 22.4013 24.2658C22.1634 24.2756 21.9261 24.2359 21.7044 24.1492C21.4826 24.0624 21.2814 23.9305 21.1133 23.7618L14.0013 16.5564L6.81468 23.7431C6.65696 23.906 6.46853 24.0361 6.26028 24.1258C6.05203 24.2155 5.82808 24.2631 5.60135 24.2658C5.10627 24.2658 4.63148 24.0691 4.28141 23.719C3.93134 23.369 3.73468 22.8942 3.73468 22.3991C3.73033 22.1702 3.77279 21.9429 3.85946 21.731C3.94612 21.5192 4.07517 21.3273 4.23868 21.1671L11.5 13.9991L4.23868 6.73776C3.93102 6.43677 3.75062 6.02919 3.73468 5.59909C3.73468 5.10402 3.93134 4.62922 4.28141 4.27916C4.63148 3.92909 5.10627 3.73242 5.60135 3.73242C6.04935 3.73802 6.47868 3.91909 6.79601 4.23642Z" fill="#F2F2F2"/>
</svg>
