<svg width="34" height="42" viewBox="0 0 34 42" fill="none" xmlns="http://www.w3.org/2000/svg">
<path fill-rule="evenodd" clip-rule="evenodd" d="M33.333 33.9023C33.333 40.7689 23.9163 41.5627 16.8351 41.5627L16.3283 41.5622C11.8168 41.5513 0.333008 41.2664 0.333008 33.8606C0.333008 27.1341 9.37124 26.2351 16.3986 26.2012L17.3418 26.2006C21.8531 26.2116 33.333 26.4964 33.333 33.9023ZM16.8351 29.3252C7.95801 29.3252 3.45801 30.8502 3.45801 33.8606C3.45801 36.8981 7.95801 38.4377 16.8351 38.4377C25.7101 38.4377 30.208 36.9127 30.208 33.9023C30.208 30.8648 25.7101 29.3252 16.8351 29.3252ZM16.8351 0.166016C22.9351 0.166016 27.8955 5.12852 27.8955 11.2285C27.8955 17.3285 22.9351 22.2889 16.8351 22.2889H16.7684C10.6809 22.2702 5.74967 17.3056 5.77044 11.2223C5.77044 5.12852 10.733 0.166016 16.8351 0.166016ZM16.8351 3.14102C12.3747 3.14102 8.74546 6.7681 8.74546 11.2285C8.73092 15.6743 12.333 19.2994 16.7747 19.316L16.8351 20.8035V19.316C21.2934 19.316 24.9205 15.6869 24.9205 11.2285C24.9205 6.7681 21.2934 3.14102 16.8351 3.14102Z" fill="white"/>
</svg>
