<svg width="664" height="724" viewBox="0 0 664 724" fill="none" xmlns="http://www.w3.org/2000/svg">
<rect width="3.77782" height="3.77782" transform="matrix(-0.707107 0.707107 0.707107 0.707107 318.641 312.123)" fill="#00D1FF" fill-opacity="0.5"/>
<rect width="1.55932" height="1.55932" transform="matrix(-0.707107 0.707107 0.707107 0.707107 202.664 411.392)" fill="#0096FF"/>
<rect width="2.04513" height="2.04513" transform="matrix(0.707159 -0.707055 0.707159 0.707055 380.605 664.021)" fill="#0096FF"/>
<rect width="2.35521" height="2.35521" transform="matrix(-0.707129 0.707084 0.707129 0.707084 208.061 480.72)" fill="#0096FF"/>
<rect width="1.39388" height="1.39388" transform="matrix(-0.707107 0.707107 0.707107 0.707107 238.609 463.532)" fill="#0096FF"/>
<rect width="3.77782" height="3.77782" transform="matrix(-0.707107 0.707107 0.707107 0.707107 412.395 322.914)" fill="#0096FF"/>
<rect width="3.77782" height="3.77782" transform="matrix(-0.707093 0.707121 0.707093 0.707121 392.24 195.755)" fill="#0500FF" fill-opacity="0.5"/>
<rect width="2.64031" height="2.64031" transform="matrix(-0.707087 0.707127 0.707087 0.707127 283.994 248.031)" fill="#4CB5FF"/>
<rect width="3.35887" height="3.35887" transform="matrix(-0.707107 0.707107 0.707107 0.707107 96.9004 414.442)" fill="#00C2FF" fill-opacity="0.65"/>
<rect width="5.03831" height="5.03831" transform="matrix(-0.707107 0.707107 0.707107 0.707107 41.1309 519.05)" fill="#00C2FF" fill-opacity="0.65"/>
<rect width="5.25265" height="5.25265" transform="matrix(-0.707107 0.707107 0.707107 0.707107 159.225 435.706)" fill="#00C2FF" fill-opacity="0.65"/>
<rect width="2.51915" height="2.51915" transform="matrix(-0.707107 0.707107 0.707107 0.707107 242.293 401.999)" fill="#00C2FF" fill-opacity="0.65"/>
<rect width="4.49572" height="4.49572" transform="matrix(-0.839642 -0.54314 -0.54314 0.839642 493.537 545.571)" fill="#00C2FF" fill-opacity="0.65"/>
<rect width="3.51346" height="3.51346" transform="matrix(-0.707107 -0.707107 -0.707107 0.707107 392.193 519.016)" fill="#00D1FF"/>
<rect x="354.873" y="356.553" width="4.22496" height="4.22496" transform="rotate(32.8977 354.873 356.553)" fill="#001AFF" fill-opacity="0.5"/>
<rect width="4.49572" height="4.49572" transform="matrix(-0.839642 -0.54314 -0.54314 0.839642 291.277 441.511)" fill="#00C2FF" fill-opacity="0.65"/>
<rect width="4.49572" height="4.49572" transform="matrix(-0.839642 -0.54314 -0.54314 0.839642 524.711 640.15)" fill="#00C2FF" fill-opacity="0.65"/>
<rect width="3.24701" height="3.24701" transform="matrix(-0.707123 -0.70709 -0.707123 0.70709 326.721 593.468)" fill="#0500FF" fill-opacity="0.5"/>
<rect width="5.85443" height="5.85442" transform="matrix(-0.839642 -0.54314 -0.54314 0.839642 590.24 570.484)" fill="#0500FF" fill-opacity="0.5"/>
<rect width="2.51606" height="2.51606" transform="matrix(-0.707107 0.707107 0.707107 0.707107 342.586 333.825)" fill="#3ED1FF"/>
<rect width="2.83462" height="2.83462" transform="matrix(-0.707069 0.707144 0.707069 0.707144 475.568 228.026)" fill="#00B3FF"/>
<rect x="241.736" y="265.74" width="3.12976" height="3.12976" transform="rotate(-45 241.736 265.74)" fill="#00B3FF"/>
<rect width="3.33033" height="3.33033" transform="matrix(-0.707091 0.707123 0.707091 0.707123 248.686 342.245)" fill="#00B3FF"/>
<rect width="3.33033" height="3.33033" transform="matrix(-0.707091 0.707123 0.707091 0.707123 506.439 442.931)" fill="#00A3FF" fill-opacity="0.5"/>
<rect width="1.82753" height="1.82753" transform="matrix(-0.707136 0.707078 0.707136 0.707078 480.4 351.072)" fill="#00A3FF" fill-opacity="0.5"/>
<rect width="2.32453" height="2.32453" transform="matrix(-0.707084 0.70713 0.707084 0.70713 447.947 257.943)" fill="#00B3FF" fill-opacity="0.6"/>
<rect width="5.03831" height="5.03831" transform="matrix(-0.707115 0.707098 0.707115 0.707098 501.562 291)" fill="#1500FF" fill-opacity="0.6"/>
<g opacity="0.5">
<rect width="2.51606" height="2.51606" transform="matrix(-0.707086 0.707128 0.707086 0.707128 192.957 296.146)" fill="#3ED1FF"/>
<rect width="2.83462" height="2.83462" transform="matrix(-0.707107 0.707107 0.707107 0.707107 304.934 171.349)" fill="#00D1FF"/>
<rect x="92.1074" y="228.062" width="3.12976" height="3.12976" transform="rotate(-45 92.1074 228.062)" fill="#00D1FF"/>
<rect width="3.33033" height="3.33033" transform="matrix(-0.707107 0.707107 0.707107 0.707107 99.0566 304.565)" fill="#00D1FF"/>
<rect width="3.33033" height="3.33033" transform="matrix(-0.707091 0.707123 0.707091 0.707123 356.809 405.252)" fill="#00A3FF" fill-opacity="0.5"/>
<rect width="1.82753" height="1.82753" transform="matrix(-0.707165 0.707049 0.707165 0.707049 330.77 313.394)" fill="#00A3FF" fill-opacity="0.5"/>
<rect width="3.33033" height="3.33033" transform="matrix(-0.985731 0.168328 0.16831 0.985734 377.6 194.571)" fill="#0500FF" fill-opacity="0.5"/>
<rect width="2.32453" height="2.32453" transform="matrix(-0.707107 0.707107 0.707107 0.707107 297.318 218.265)" fill="#00D1FF" fill-opacity="0.6"/>
<rect width="6.27655" height="6.27655" transform="matrix(-0.707107 0.707107 0.707107 0.707107 326.35 223.534)" fill="#1500FF" fill-opacity="0.6"/>
</g>
</svg>
