<svg width="1408" height="643" viewBox="0 0 1408 643" fill="none" xmlns="http://www.w3.org/2000/svg">
<rect x="1092.05" y="269.335" width="3.99053" height="3.99053" transform="rotate(45 1092.05 269.335)" fill="#0096FF" fill-opacity="0.88"/>
<rect x="1214.56" y="374.191" width="1.64712" height="1.64712" transform="rotate(45 1214.56 374.191)" fill="#0096FF" fill-opacity="0.88"/>
<rect width="2.16028" height="2.16028" transform="matrix(-0.707159 -0.707055 -0.707159 0.707055 1026.6 641.046)" fill="#0096FF" fill-opacity="0.88"/>
<rect width="2.48782" height="2.48782" transform="matrix(0.707129 0.707084 -0.707129 0.707084 1208.86 447.424)" fill="#0096FF" fill-opacity="0.88"/>
<rect x="1176.59" y="429.269" width="1.47236" height="1.47236" transform="rotate(45 1176.59 429.269)" fill="#0096FF" fill-opacity="0.88"/>
<rect x="993.018" y="280.733" width="3.99053" height="3.99053" transform="rotate(45 993.018 280.733)" fill="#0096FF" fill-opacity="0.88"/>
<rect width="3.99053" height="3.99053" transform="matrix(0.707093 0.707121 -0.707093 0.707121 1014.31 153.414)" fill="#0500FF" fill-opacity="0.5"/>
<rect width="2.78898" height="2.78898" transform="matrix(0.707087 0.707127 -0.707087 0.707127 1128.65 201.634)" fill="#52B8FF"/>
<rect x="2.82812" y="583.999" width="4" height="4" transform="rotate(45 2.82812 583.999)" fill="#00A3FF" fill-opacity="0.68"/>
<rect x="907.305" y="515.924" width="4.74885" height="4.74885" transform="rotate(-32.8977 907.305 515.924)" fill="#0066FF" fill-opacity="0.5"/>
<rect x="1014.36" y="487.875" width="3.71129" height="3.71129" transform="rotate(-45 1014.36 487.875)" fill="#0096FF" fill-opacity="0.5"/>
<rect width="4.46285" height="4.46285" transform="matrix(-0.839642 0.54314 0.54314 0.839642 1053.78 316.264)" fill="#001AFF" fill-opacity="0.5"/>
<rect x="1120.96" y="406.006" width="4.74885" height="4.74885" transform="rotate(-32.8977 1120.96 406.006)" fill="#00B3FF" fill-opacity="0.5"/>
<rect width="3.42983" height="3.42983" transform="matrix(0.707123 -0.70709 0.707123 0.70709 1083.52 566.519)" fill="#0500FF" fill-opacity="0.5"/>
<rect x="1066.76" y="292.256" width="2.65772" height="2.65772" transform="rotate(45 1066.76 292.256)" fill="#0096FF" fill-opacity="0.7"/>
<rect width="2.99422" height="2.99422" transform="matrix(0.707069 0.707144 -0.707069 0.707144 948.473 160.433)" fill="#00B3FF"/>
<rect width="3.30598" height="3.30598" transform="matrix(-0.707107 -0.707107 -0.707107 0.707107 1173.28 220.338)" fill="#00B3FF"/>
<rect width="3.51785" height="3.51785" transform="matrix(0.707091 0.707123 -0.707091 0.707123 1165.94 301.15)" fill="#00B3FF"/>
<rect width="1.93043" height="1.93043" transform="matrix(0.707136 0.707078 -0.707136 0.707078 921.182 310.475)" fill="#0096FF" fill-opacity="0.88"/>
<rect width="2.45541" height="2.45542" transform="matrix(0.707084 0.70713 -0.707084 0.70713 956.518 209.99)" fill="#0096FF" fill-opacity="0.7"/>
<rect width="4.5" height="4.5" transform="matrix(0.707115 0.707098 -0.707115 0.707098 932.85 234.556)" fill="#1500FF"/>
<g opacity="0.5">
<rect width="2.65772" height="2.65772" transform="matrix(0.707086 0.707128 -0.707086 0.707128 1224.81 252.454)" fill="#0096FF" fill-opacity="0.7"/>
<rect x="1106.53" y="100.631" width="2.99422" height="2.99422" transform="rotate(45 1106.53 100.631)" fill="#00B3FF"/>
<rect width="3.30598" height="3.30598" transform="matrix(-0.707107 -0.707107 -0.707107 0.707107 1331.34 180.537)" fill="#00B3FF"/>
<rect x="1324" y="261.349" width="3.51785" height="3.51785" transform="rotate(45 1324 261.349)" fill="#00B3FF"/>
<rect width="3.51785" height="3.51785" transform="matrix(0.707091 0.707123 -0.707091 0.707123 1051.73 367.704)" fill="#0096FF" fill-opacity="0.88"/>
<rect width="1.93043" height="1.93043" transform="matrix(0.707165 0.707049 -0.707165 0.707049 1079.24 270.674)" fill="#0096FF" fill-opacity="0.88"/>
<rect width="3.51785" height="3.51785" transform="matrix(0.985731 0.168328 -0.16831 0.985734 1029.77 135.161)" fill="#0500FF" fill-opacity="0.8"/>
<rect x="1114.57" y="170.189" width="2.45541" height="2.45541" transform="rotate(45 1114.57 170.189)" fill="#0096FF" fill-opacity="0.7"/>
<rect x="1083.91" y="175.756" width="5.32199" height="5.32199" transform="rotate(45 1083.91 175.756)" fill="#1500FF"/>
</g>
</svg>
