<svg width="64" height="64" viewBox="0 0 64 64" fill="none" xmlns="http://www.w3.org/2000/svg">
<path d="M33.2 33.2H30.8V26H33.2M33.2 38H30.8V35.6H33.2M32 20C30.4241 20 28.8637 20.3104 27.4078 20.9134C25.9519 21.5165 24.629 22.4004 23.5147 23.5147C21.2643 25.7652 20 28.8174 20 32C20 35.1826 21.2643 38.2348 23.5147 40.4853C24.629 41.5996 25.9519 42.4835 27.4078 43.0866C28.8637 43.6896 30.4241 44 32 44C35.1826 44 38.2348 42.7357 40.4853 40.4853C42.7357 38.2348 44 35.1826 44 32C44 30.4241 43.6896 28.8637 43.0866 27.4078C42.4835 25.9519 41.5996 24.629 40.4853 23.5147C39.371 22.4004 38.0481 21.5165 36.5922 20.9134C35.1363 20.3104 33.5759 20 32 20Z" fill="#FF0000" fill-opacity="0.8"/>
<g filter="url(#filter0_f_4091_17328)">
<path d="M32 20C30.4241 20 28.8637 20.3104 27.4078 20.9134C25.9519 21.5165 24.629 22.4004 23.5147 23.5147C21.2643 25.7652 20 28.8174 20 32C20 35.1826 21.2643 38.2348 23.5147 40.4853C24.629 41.5996 25.9519 42.4835 27.4078 43.0866C28.8637 43.6896 30.4241 44 32 44C35.1826 44 38.2348 42.7357 40.4853 40.4853C42.7357 38.2348 44 35.1826 44 32C44 30.4241 43.6896 28.8637 43.0866 27.4078C42.4835 25.9519 41.5996 24.629 40.4853 23.5147C39.371 22.4004 38.0481 21.5165 36.5922 20.9134C35.1363 20.3104 33.5759 20 32 20Z" fill="#FF0000" fill-opacity="0.8"/>
<path d="M41.7007 27.9818L43.0866 27.4078L41.7007 27.9818C42.2284 29.2557 42.5 30.6211 42.5 32C42.5 34.7848 41.3938 37.4555 39.4246 39.4246C37.4555 41.3938 34.7848 42.5 32 42.5C30.6211 42.5 29.2557 42.2284 27.9818 41.7007L27.4078 43.0866L27.9818 41.7007C26.7079 41.1731 25.5504 40.3996 24.5754 39.4246C22.6062 37.4555 21.5 34.7848 21.5 32C21.5 29.2152 22.6062 26.5445 24.5754 24.5754C25.5504 23.6004 26.7079 22.8269 27.9818 22.2993C29.2557 21.7716 30.6211 21.5 32 21.5C33.3789 21.5 34.7443 21.7716 36.0182 22.2993C37.2921 22.8269 38.4496 23.6004 39.4246 24.5754C40.3996 25.5504 41.1731 26.7079 41.7007 27.9818Z" stroke="#FF0000" stroke-opacity="0.8" stroke-width="3"/>
</g>
<defs>
<filter id="filter0_f_4091_17328" x="0" y="0" width="64" height="64" filterUnits="userSpaceOnUse" color-interpolation-filters="sRGB">
<feFlood flood-opacity="0" result="BackgroundImageFix"/>
<feBlend mode="normal" in="SourceGraphic" in2="BackgroundImageFix" result="shape"/>
<feGaussianBlur stdDeviation="10" result="effect1_foregroundBlur_4091_17328"/>
</filter>
</defs>
</svg>
